<svg width="592" height="329" viewBox="0 0 592 329" fill="none" xmlns="http://www.w3.org/2000/svg">
<path d="M0.5 62.7466L58.5 167.747V300.747H0.5V62.7466Z" fill="white"/>
<path d="M0 27.5464L65.9998 27.5468L210.5 301.247L145.5 301.247L0 27.5464Z" fill="white"/>
<path d="M199 97.7466L234 165.247L197 243.247L162 177.747L199 97.7466Z" fill="white"/>
<path d="M181 28.7466H249L316.5 171.747L381 28.7466H442L319.5 297.747L318 300.747L181 28.7466Z" fill="white"/>
<path d="M338 300H399L466.5 157L531 300H592L469.5 31L468 28L338 300Z" fill="white"/>
<path d="M468.75 197H484.75L509.75 252.5H444L468.75 197Z" fill="white"/>
</svg>
